<?xml version="1.0" encoding="UTF-8" standalone="no"?>
<!-- Created with Inkscape (http://www.inkscape.org/) -->

<svg
   width="600"
   height="1000"
   viewBox="0 0 158.75 264.58332"
   version="1.1"
   id="svg5"
   inkscape:version="1.1.2 (0a00cf5339, 2022-02-04)"
   sodipodi:docname="LoyaltyCardC_image.svg"
   xmlns:inkscape="http://www.inkscape.org/namespaces/inkscape"
   xmlns:sodipodi="http://sodipodi.sourceforge.net/DTD/sodipodi-0.dtd"
   xmlns="http://www.w3.org/2000/svg"
   xmlns:svg="http://www.w3.org/2000/svg">
  <sodipodi:namedview
     id="namedview7"
     pagecolor="#ffffff"
     bordercolor="#000000"
     borderopacity="0.25"
     inkscape:pageshadow="2"
     inkscape:pageopacity="0.0"
     inkscape:pagecheckerboard="0"
     inkscape:document-units="mm"
     showgrid="false"
     units="px"
     width="300px"
     inkscape:zoom="0.938593"
     inkscape:cx="261.02901"
     inkscape:cy="482.1046"
     inkscape:window-width="2560"
     inkscape:window-height="1376"
     inkscape:window-x="0"
     inkscape:window-y="0"
     inkscape:window-maximized="1"
     inkscape:current-layer="layer1"
     showguides="false" />
  <defs
     id="defs2">
    <pattern
       patternUnits="userSpaceOnUse"
       width="315.12989"
       height="81.62747"
       patternTransform="translate(-391.72252,115.57337)"
       id="pattern9536">
      <path
         id="path6673"
         style="fill:#e9ddb5;fill-opacity:1;stroke:#cca998;stroke-width:2.25638;stroke-opacity:1;-inkscape-stroke:none;stop-color:#000000"
         d="M 132.03809,0.69653861 132.66895,28.298111 Z M 33.542007,1.2863906 33.393547,27.57545 Z M 291.01661,1.6379622 292.12208,28.446552 Z M 228.87989,2.1535918 229.7959,28.118432 Z M 180.2627,27.17507 l 0.58985,28.966802 z m 75.64844,0.134778 1.15234,28.802732 z m -211.205074,0.51171 0.316422,27.625001 z m 267.160154,0.542971 0.46679,27.677741 z m -207.31446,0.53125 0.26563,26.88477 z m -25.884757,26.419929 0.759761,26.10742 z m -56.818359,0.634761 -0.259767,24.607419 z m 258.384756,0.107414 0.2422,23.664072 z m -74.76562,0.169927 0.34961,24.27148 z m -69.83594,0.626952 0.76563,22.695307 z M 0,1.1281909 H 315.12989 Z M 0,27.964122 h 315.12989 z m 0,28.191409 h 315.12989 z m 0,24.343748 h 315.12989 z" />
    </pattern>
  </defs>
  <g
     inkscape:label="Layer 1"
     inkscape:groupmode="layer"
     id="layer1">
    <rect
       style="fill:#f30000;fill-opacity:1;stroke-width:1.2139;stroke-opacity:0.984802;-inkscape-stroke:none;stop-color:#000000"
       id="rect1533"
       width="162.1555"
       height="266.44727"
       x="-0.53221393"
       y="-0.26631892" />
    <path
       style="fill:#e9ddb5;fill-opacity:1;stroke-width:0.597001;stroke-opacity:0.984802;-inkscape-stroke:none;stop-color:#000000"
       d="M -107.21426,20.513263 -6.8138963,20.191728"
       id="path2494" />
    <ellipse
       style="fill:none;fill-opacity:1;stroke:#00d870;stroke-width:2.105;stroke-opacity:1;stop-color:#000000"
       id="path16650"
       cx="108.19923"
       cy="62.16634"
       rx="45.809357"
       ry="46.151264" />
    <path
       style="fill:none;fill-opacity:1;stroke:#00d870;stroke-width:2.105;stroke-opacity:1;stop-color:#000000"
       id="path16650-0"
       sodipodi:type="arc"
       sodipodi:cx="127.74213"
       sodipodi:cy="150.04587"
       sodipodi:rx="45.809357"
       sodipodi:ry="46.151264"
       sodipodi:start="0"
       sodipodi:end="5.6416541"
       sodipodi:arc-type="slice"
       d="m 173.55148,150.04587 a 45.809357,46.151264 0 0 1 -38.49378,45.55897 45.809357,46.151264 0 0 1 -50.788392,-31.00779 45.809357,46.151264 0 0 1 22.272362,-55.46262 45.809357,46.151264 0 0 1 57.90201,13.29346 l -36.70155,27.61798 z"
       transform="rotate(25.283888)" />
    <path
       style="fill:none;fill-opacity:1;stroke:#00d870;stroke-width:2.105;stroke-opacity:1;stop-color:#000000"
       id="path16650-4"
       sodipodi:type="arc"
       sodipodi:cx="-181.03481"
       sodipodi:cy="-209.23569"
       sodipodi:rx="18.58927"
       sodipodi:ry="18.174429"
       sodipodi:start="0"
       sodipodi:end="5.877961"
       sodipodi:arc-type="slice"
       d="m -162.44554,-209.23569 a 18.58927,18.174429 0 0 1 -16.70928,18.08125 18.58927,18.174429 0 0 1 -20.089,-14.42403 18.58927,18.174429 0 0 1 12.64597,-20.99873 18.58927,18.174429 0 0 1 22.64684,10.1767 l -17.0838,7.16481 z"
       transform="rotate(-168.49653)" />
    <g
       id="g5729"
       transform="translate(174.9546,37.214356)">
      <rect
         style="fill:#00d870;fill-opacity:1;stroke:#ffffff;stroke-width:0.703308;stroke-opacity:1;-inkscape-stroke:none;stop-color:#000000"
         id="rect990"
         width="122.821"
         height="84.895615"
         x="-155.52242"
         y="46.45438"
         ry="0.15566711" />
      <text
         xml:space="preserve"
         style="font-size:16.568px;line-height:1.25;font-family:'Times New Roman';-inkscape-font-specification:'Times New Roman, ';text-decoration-color:#000000;fill:#ff1717;fill-opacity:1;stroke:#cca998;stroke-width:2.80423;stroke-miterlimit:4;stroke-dasharray:none;stop-color:#000000"
         x="-146.92218"
         y="92.016975"
         id="text4132"><tspan
           sodipodi:role="line"
           id="tspan4130"
           style="font-style:normal;font-variant:normal;font-weight:normal;font-stretch:normal;font-family:Sarai;-inkscape-font-specification:Sarai;fill:#ff1717;fill-opacity:1;stroke:none;stroke-width:2.80423;stroke-miterlimit:4;stroke-dasharray:none;stroke-opacity:1"
           x="-146.92218"
           y="92.016975">Loyalty Program C</tspan></text>
      <text
         xml:space="preserve"
         style="font-size:3.52777px;line-height:1.25;font-family:Sarai;-inkscape-font-specification:Sarai;text-decoration-color:#000000;fill:none;fill-opacity:1;stroke:#d8cf00;stroke-width:2.105;stroke-opacity:1;stop-color:#000000"
         x="75.852486"
         y="138.7489"
         id="text8353"><tspan
           sodipodi:role="line"
           id="tspan8351"
           style="stroke-width:2.105"
           x="75.852486"
           y="138.7489"></tspan><tspan
           sodipodi:role="line"
           style="stroke-width:2.105"
           id="tspan8355"
           x="75.852486"
           y="143.15862" /></text>
    </g>
  </g>
</svg>
