<?xml version="1.0" encoding="UTF-8" standalone="no"?>
<!-- Created with Inkscape (http://www.inkscape.org/) -->

<svg
   width="500"
   height="500"
   viewBox="0 0 132.29167 132.29166"
   version="1.1"
   id="svg5"
   inkscape:version="1.1.2 (0a00cf5339, 2022-02-04)"
   sodipodi:docname="LoyaltyToken2_PartyInvite.svg"
   xmlns:inkscape="http://www.inkscape.org/namespaces/inkscape"
   xmlns:sodipodi="http://sodipodi.sourceforge.net/DTD/sodipodi-0.dtd"
   xmlns="http://www.w3.org/2000/svg"
   xmlns:svg="http://www.w3.org/2000/svg">
  <sodipodi:namedview
     id="namedview7"
     pagecolor="#ffffff"
     bordercolor="#000000"
     borderopacity="0.25"
     inkscape:pageshadow="2"
     inkscape:pageopacity="0.0"
     inkscape:pagecheckerboard="0"
     inkscape:document-units="mm"
     showgrid="false"
     units="px"
     width="300px"
     inkscape:zoom="1.3273709"
     inkscape:cx="190.60234"
     inkscape:cy="297.20404"
     inkscape:window-width="2560"
     inkscape:window-height="1376"
     inkscape:window-x="0"
     inkscape:window-y="0"
     inkscape:window-maximized="1"
     inkscape:current-layer="layer1" />
  <defs
     id="defs2" />
  <g
     inkscape:label="Layer 1"
     inkscape:groupmode="layer"
     id="layer1">
    <rect
       style="fill:#eddfdf;stroke:#cca998;stroke-width:0.597001;-inkscape-stroke:none;stop-color:#000000;fill-opacity:1"
       id="rect1024"
       width="132.42368"
       height="131.92612"
       x="0.057618521"
       y="0.39242876"
       ry="0.13213767" />
    <g
       id="SVGRepo_bgCarrier"
       stroke-width="0"
       transform="matrix(0.1233123,0,0,0.1233123,-1.9293776,-8.8725303)" />
    <g
       id="SVGRepo_tracerCarrier"
       stroke-linecap="round"
       stroke-linejoin="round"
       transform="matrix(0.1233123,0,0,0.1233123,-1.9293776,-8.8725303)" />
    <text
       xml:space="preserve"
       style="font-size:5.67009px;line-height:1.25;font-family:Sarai;-inkscape-font-specification:Sarai;text-decoration-color:#000000;fill:#f44336;fill-opacity:1;stroke:none;stroke-width:3.38331;stop-color:#000000"
       x="15.441346"
       y="129.42186"
       id="text3815"><tspan
         sodipodi:role="line"
         id="tspan3813"
         style="fill:#f44336;fill-opacity:1;stroke:none;stroke-width:3.38331"
         x="15.441346"
         y="129.42186">Image from: www.svgrepo.com/svg/397713/party-popper</tspan></text>
    <g
       id="SVGRepo_bgCarrier-4"
       stroke-width="0"
       transform="matrix(0.93722907,0,0,0.93722907,6.9692496,4.9281396)" />
    <g
       id="SVGRepo_tracerCarrier-0"
       stroke-linecap="round"
       stroke-linejoin="round"
       transform="matrix(0.93722907,0,0,0.93722907,6.9692496,4.9281396)" />
    <g
       id="SVGRepo_iconCarrier"
       transform="matrix(0.93722907,0,0,0.93722907,6.9692496,4.9281396)">
      <path
         d="m 7.45,123.27 c 2.27,2.46 11.62,-1.83 19,-5.27 5.53,-2.57 27.66,-11.65 38.66,-16.36 2.97,-1.27 7.29,-2.93 10.4,-7.02 2.76,-3.64 10.08,-19.1 -4.66,-34.76 -14.96,-15.9 -30.37,-11.51 -36.13,-7.43 -3.39,2.4 -6.15,7.81 -7.39,10.56 -5.24,11.62 -12.71,32.91 -15.75,41.28 -2.23,6.17 -6.38,16.56 -4.13,19 z"
         fill="#ffc107"
         id="path22572" />
      <path
         d="m 25.85,66.49 c 0.14,1.74 0.49,4.57 1.69,10.02 0.82,3.74 2.16,7.66 3.25,10.25 3.27,7.79 7.86,10.93 12.51,13.45 7.9,4.28 13.27,5.08 13.27,5.08 l -6.44,2.63 c 0,0 -3.9,-0.81 -9.22,-3.43 -5.07,-2.5 -10.35,-6.73 -14.21,-15.01 -1.67,-3.59 -2.64,-7.07 -3.2,-9.83 -0.69,-3.42 -0.8,-5.36 -0.8,-5.36 z"
         fill="#ff8f00"
         id="path22574" />
      <path
         d="m 17.94,86.77 c 0,0 0.8,6.49 6.16,14.68 6.28,9.58 15.05,11.15 15.05,11.15 l -5.83,2.4 c 0,0 -6.51,-1.99 -12.7,-10.44 -3.86,-5.27 -4.94,-11.57 -4.94,-11.57 z"
         fill="#ff8f00"
         id="path22576" />
      <path
         d="m 12.39,102.15 c 0,0 1.46,5.6 4.66,9.78 3.81,4.99 8.66,6.44 8.66,6.44 l -4.47,1.98 c 0,0 -3.39,-0.71 -7.1,-5.41 -2.82,-3.57 -3.62,-7.67 -3.62,-7.67 z"
         fill="#ff8f00"
         id="path22578" />
      <path
         d="m 9.96,116.37 c -0.2,-0.45 -0.2,-0.96 0.01,-1.4 l 25.47,-52.82 4.19,15.75 -26.8,38.71 c -0.72,1.08 -2.34,0.94 -2.87,-0.24 z"
         fill="#fffde7"
         opacity="0.44"
         id="path22580" />
      <linearGradient
         id="IconifyId17ecdb2904d178eab14761"
         gradientUnits="userSpaceOnUse"
         x1="74.384003"
         y1="61.839001"
         x2="44.617001"
         y2="79.698997">
        <stop
           offset=".024"
           stop-color="#8f4700"
           id="stop22582" />
        <stop
           offset="1"
           stop-color="#703e2d"
           id="stop22584" />
      </linearGradient>
      <path
         d="M 41.65,83.19 C 53.55,97.11 67.1,95.37 71.61,91.85 76.13,88.32 79.7,76.19 67.85,62.5 55.43,48.16 41.37,52.25 38.12,55.35 c -3.25,3.1 -7.39,15.07 3.53,27.84 z"
         fill="url(#IconifyId17ecdb2904d178eab14761)"
         id="path22587"
         style="fill:url(#IconifyId17ecdb2904d178eab14761)" />
      <path
         d="m 82.52,88.92 c -4.34,-3.64 -6.65,-2.99 -9.75,-1.7 -4,1.66 -10.29,2.89 -18.83,0 l 2.57,-6.19 c 5.07,1.71 8.74,0.88 11.91,-0.99 4.08,-2.4 9.66,-5.69 18.34,1.6 3.62,3.04 7.33,5.06 10.05,4.14 1.98,-0.66 3.03,-3.61 3.56,-5.96 0.05,-0.21 0.13,-0.81 0.19,-1.34 0.48,-3.67 1.28,-11.59 7.18,-15.64 6.31,-4.33 12.94,-4.33 12.94,-4.33 l 1.2,11.92 c -3.05,-0.45 -5.17,0.17 -6.96,1.16 -6.74,3.75 -0.87,18.15 -11.36,22.99 -10.09,4.69 -18.34,-3.4 -21.04,-5.66 z"
         fill="#03a9f4"
         id="path22589" />
      <path
         d="M 45.4,73.72 41.06,69.83 C 49.03,60.93 46.93,54.39 45.4,49.63 45.09,48.67 44.8,47.76 44.61,46.89 43.93,43.81 43.79,41.13 44,38.79 40.94,34.98 39.59,30.99 39.5,30.72 37.64,25.09 39.04,19.6 42.25,14.45 48.74,4 60.49,4 60.49,4 l 3.92,10.49 c -2.98,-0.12 -12.75,0.03 -15.75,4.76 -3.79,5.96 -1.3,9.64 -1.12,10.06 0.73,-0.95 1.47,-1.71 2.13,-2.3 4.79,-4.25 8.95,-4.86 11.6,-4.62 2.98,0.27 5.68,1.77 7.61,4.23 2.11,2.7 2.98,6.21 2.31,9.4 -0.65,3.11 -2.72,5.74 -5.83,7.41 -5.43,2.92 -9.95,2.52 -12.98,1.51 0.02,0.07 0.03,0.15 0.05,0.22 0.11,0.5 0.33,1.2 0.59,2.01 1.77,5.48 5.06,14.18 -7.62,26.55 z m 7.35,-37.53 c 0.58,0.42 1.19,0.77 1.82,1.02 2.1,0.84 4.39,0.56 6.99,-0.84 1.53,-0.82 1.71,-1.7 1.77,-1.99 0.18,-0.87 -0.12,-1.98 -0.77,-2.81 -0.57,-0.73 -1.23,-1.11 -2.02,-1.19 -1.5,-0.13 -3.53,0.82 -5.56,2.63 -0.97,0.87 -1.71,1.94 -2.23,3.18 z"
         fill="#f44336"
         id="path22591" />
      <path
         d="m 62.77,75.35 -6.21,-0.17 c 0,0 2.95,-16.66 12.5,-19.46 1.79,-0.52 3.75,-1.05 5.72,-1.34 1.17,-0.18 3.02,-0.45 3.93,-0.79 0.21,-1.57 -0.45,-3.57 -1.19,-5.84 -0.58,-1.76 -1.18,-3.57 -1.5,-5.55 -0.62,-3.86 0.41,-7.27 2.9,-9.62 3.04,-2.85 7.95,-3.76 13.49,-2.5 3.16,0.72 5.49,2.27 7.54,3.63 2.93,1.95 4.64,2.94 8.22,0.53 4.33,-2.92 -1.33,-14.35 -4.34,-20.95 l 11.23,-4.68 c 1.51,3.3 8.8,20.28 3.99,29.97 -1.62,3.26 -4.41,5.42 -8.07,6.23 -7.96,1.78 -12.62,-1.32 -16.02,-3.58 -1.61,-1.07 -3.02,-1.91 -4.55,-2.35 -10.63,-3.03 4.21,12.61 -2.74,19.64 -4.17,4.21 -14.36,5.32 -15.02,5.48 -6.56,1.58 -9.88,11.35 -9.88,11.35 z"
         fill="#f48fb1"
         id="path22593" />
      <path
         d="m 43.99,38.79 c -0.19,2.2 -0.28,3.51 0.29,6.37 2.75,2.02 8.74,2.02 8.74,2.02 -0.26,-0.81 -0.49,-1.51 -0.59,-2.01 -0.02,-0.07 -0.03,-0.15 -0.05,-0.22 -6.09,-3.04 -8.39,-6.16 -8.39,-6.16 z"
         fill="#c92b27"
         id="path22595" />
      <g
         id="g22599">
        <path
           fill="#ffc107"
           d="m 31.53,48.64 -10.34,-5.07 5.15,-7.44 8.11,5.37 z"
           id="path22597" />
      </g>
      <g
         id="g22603">
        <path
           d="M 16.29,34.6 C 11.01,33.89 5.63,29.41 5.04,28.9 l 5.19,-6.09 c 1.57,1.33 4.9,3.56 7.13,3.86 z"
           fill="#fb8c00"
           id="path22601" />
      </g>
      <g
         id="g22607">
        <path
           d="m 25.61,21.27 -7.6,-2.49 c 0.87,-2.66 1.1,-5.53 0.65,-8.3 l 7.9,-1.27 c 0.65,4.02 0.32,8.19 -0.95,12.06 z"
           fill="#03a9f4"
           id="path22605" />
      </g>
      <g
         id="g22611">
        <path
           fill="#fb8c00"
           d="m 73.073,15.325 7.815,-1.71 2.257,10.316 -7.815,1.71 z"
           id="path22609" />
      </g>
      <g
         id="g22615">
        <path
           d="m 92.46,17.77 -5.5,-5.81 C 89.84,9.23 90.5,5.66 90.5,5.62 l 7.9,1.29 c -0.1,0.63 -1.11,6.29 -5.94,10.86 z"
           fill="#ffc107"
           id="path22613" />
      </g>
      <g
         id="g22619">
        <path
           fill="#fb8c00"
           d="m 95.516,48.581 6.987,-2.183 2.387,7.636 -6.987,2.183 z"
           id="path22617" />
      </g>
      <g
         id="g22623">
        <path
           d="m 97.55,113.03 -7.95,-0.94 c 0.34,-2.83 -1.77,-6.3 -2.35,-7.07 l 6.4,-4.8 c 0.48,0.63 4.65,6.4 3.9,12.81 z"
           fill="#f44336"
           id="path22621" />
      </g>
      <g
         id="g22627">
        <path
           d="m 120.37,102.89 c -2.99,-0.45 -6.05,-0.63 -9.07,-0.52 l -0.27,-8 c 3.51,-0.12 7.06,0.08 10.53,0.61 z"
           fill="#fb8c00"
           id="path22625" />
      </g>
      <g
         id="g22631">
        <path
           fill="#f48fb1"
           d="m 109.614,113.902 5.62,-5.693 7.736,7.637 -5.621,5.693 z"
           id="path22629" />
      </g>
      <path
         fill="#f44336"
         d="m 93.099,63.331 5.78,6.609 -6.609,5.78 -5.78,-6.609 z"
         id="path22633" />
    </g>
    <g
       id="g5743"
       transform="matrix(2.0012305,0,0,1.7022837,-95.528771,-413.91749)">
      <path
         d="m 77,253 c -1.656,0 -3,1.344 -3,3 0,1.656 1.344,3 3,3 v 4 c 0,1.105 -0.895,2 -2,2 -4.843,0 -17.157,0 -22,0 -1.105,0 -2,-0.895 -2,-2 0,-1.745 0,-4 0,-4 1.656,0 3,-1.344 3,-3 0,-1.656 -1.344,-3 -3,-3 v -4 c 0,-1.105 0.895,-2 2,-2 4.843,0 17.157,0 22,0 1.105,0 2,0.895 2,2 0,1.745 0,4 0,4 z"
         style="fill:#90e0ef"
         id="path1053" />
      <path
         style="fill:#008397;fill-opacity:1;stroke:#000000;stroke-width:0.0146953;stroke-miterlimit:4;stroke-dasharray:none;stroke-opacity:1;stop-color:#000000"
         d="m 53.028618,265.95342 c -1.280027,-0.19275 -2.314449,-1.2105 -2.510521,-2.47007 -0.07767,-0.49896 -0.07748,-4.40259 1.93e-4,-4.70125 0.10835,-0.41642 0.519364,-0.71839 0.980253,-0.72019 0.518777,-0.002 1.085217,-0.26665 1.450769,-0.67775 0.6935,-0.77991 0.697758,-1.93469 0.01,-2.70689 -0.377711,-0.42407 -0.784435,-0.61925 -1.42776,-0.68516 -0.24601,-0.0252 -0.425998,-0.068 -0.537561,-0.12787 -0.218108,-0.11702 -0.43762,-0.40345 -0.489539,-0.63877 -0.06232,-0.28249 -0.05304,-4.22699 0.0109,-4.63353 0.0994,-0.63194 0.342143,-1.11996 0.799626,-1.60758 0.327139,-0.34869 0.854223,-0.67033 1.332501,-0.81312 l 0.309353,-0.0924 h 11.482444 11.482445 l 0.309353,0.094 c 0.839389,0.2549 1.537304,0.85447 1.885286,1.61963 0.27787,0.61099 0.272824,0.55868 0.289543,3.001 0.01051,1.53485 0.0027,2.24436 -0.02648,2.39552 -0.05139,0.26661 -0.257581,0.54795 -0.494868,0.67526 -0.111562,0.0599 -0.29155,0.10266 -0.537559,0.12787 -0.203413,0.0208 -0.459918,0.0685 -0.570011,0.10587 -0.909134,0.30878 -1.491169,1.25828 -1.35332,2.20774 0.08987,0.61898 0.480287,1.19992 0.99454,1.47986 0.327766,0.17843 0.464343,0.22054 0.895003,0.27598 0.407549,0.0525 0.684087,0.16449 0.842532,0.34129 0.253638,0.28302 0.240797,0.13947 0.240797,2.69206 0,2.59421 0.0047,2.54138 -0.279148,3.16507 -0.34898,0.76691 -1.041711,1.36032 -1.892948,1.62155 l -0.302725,0.0929 -11.336867,0.006 c -6.235277,0.003 -11.435589,-0.009 -11.556252,-0.027 z m 15.450456,-3.00532 v -1.09602 l 0.100128,-0.21875 c 0.233787,-0.51077 0.81605,-0.7095 1.308497,-0.44659 0.198433,0.10594 0.431522,0.39654 0.48092,0.59959 0.02292,0.0942 0.03904,0.59226 0.03916,1.20998 l 1.94e-4,1.04986 2.702286,-0.0114 c 2.504623,-0.0106 2.710903,-0.0168 2.820078,-0.0849 0.186578,-0.11637 0.371065,-0.31964 0.457565,-0.50413 0.07781,-0.16597 0.07999,-0.21136 0.08995,-1.87315 l 0.01021,-1.70306 -0.299767,-0.0949 c -0.552699,-0.17492 -1.165885,-0.56566 -1.639325,-1.04461 -0.415197,-0.42004 -0.82521,-1.19851 -0.979764,-1.86024 -0.10744,-0.46001 -0.106993,-1.23434 9.76e-4,-1.69408 0.140505,-0.59826 0.421143,-1.17454 0.806066,-1.65523 0.416721,-0.5204 1.18459,-1.04762 1.809057,-1.24209 l 0.299979,-0.0934 2.9e-4,-1.61197 c 1.93e-4,-1.05918 -0.01379,-1.67574 -0.04074,-1.79791 -0.0552,-0.25019 -0.302321,-0.55897 -0.549318,-0.68636 l -0.192174,-0.0991 -2.647695,-0.0119 -2.647696,-0.0119 v 1.06632 c 0,1.18132 -0.0155,1.29616 -0.209923,1.5554 -0.244823,0.32645 -0.625675,0.46144 -0.996198,0.3531 -0.322691,-0.0943 -0.519472,-0.27062 -0.651192,-0.5833 -0.06362,-0.15103 -0.07007,-0.26737 -0.07079,-1.27787 l -7.73e-4,-1.11172 -7.65193,0.0109 -7.651929,0.011 -0.192142,0.0991 c -0.246999,0.12739 -0.494121,0.43617 -0.54932,0.68636 -0.02695,0.12217 -0.04092,0.73873 -0.04074,1.79791 l 2.9e-4,1.61197 0.299978,0.0947 c 0.638811,0.20169 1.402685,0.72719 1.81224,1.2467 0.834842,1.05901 1.096373,2.35217 0.728935,3.6043 -0.361851,1.23309 -1.356933,2.26698 -2.545598,2.64488 l -0.295555,0.094 -2.9e-4,1.61197 c -1.93e-4,1.05027 0.01389,1.67617 0.04036,1.79618 0.067,0.3037 0.353965,0.62462 0.650621,0.72762 0.05017,0.0174 3.534589,0.0333 7.743151,0.0352 l 7.65193,0.004 z"
         id="path3245" />
      <path
         style="fill:#008397;fill-opacity:1;stroke:#000000;stroke-width:0.0146953;stroke-miterlimit:4;stroke-dasharray:none;stroke-opacity:1;stop-color:#000000"
         d="m 69.07541,258.91181 c -0.204827,-0.0863 -0.428991,-0.31472 -0.520347,-0.5301 -0.07408,-0.17466 -0.07599,-0.23361 -0.07599,-2.34813 0,-2.39065 -0.0046,-2.33794 0.22931,-2.61648 0.171909,-0.20468 0.373441,-0.30716 0.648387,-0.32969 0.418453,-0.0343 0.776874,0.17088 0.95218,0.54504 0.08007,0.1709 0.08093,0.1925 0.09119,2.30196 0.0067,1.37053 -0.003,2.18616 -0.02719,2.28858 -0.09974,0.42275 -0.453422,0.7161 -0.890585,0.73867 -0.166826,0.009 -0.309826,-0.009 -0.406956,-0.0498 z"
         id="path5541" />
    </g>
  </g>
</svg>
