<?xml version="1.0" encoding="UTF-8" standalone="no"?>
<!-- Created with Inkscape (http://www.inkscape.org/) -->

<svg
   width="500"
   height="500"
   viewBox="0 0 132.29167 132.29166"
   version="1.1"
   id="svg5"
   inkscape:version="1.1.2 (0a00cf5339, 2022-02-04)"
   sodipodi:docname="LoyaltToken_FreeCupCake.svg"
   xmlns:inkscape="http://www.inkscape.org/namespaces/inkscape"
   xmlns:sodipodi="http://sodipodi.sourceforge.net/DTD/sodipodi-0.dtd"
   xmlns="http://www.w3.org/2000/svg"
   xmlns:svg="http://www.w3.org/2000/svg">
  <sodipodi:namedview
     id="namedview7"
     pagecolor="#ffffff"
     bordercolor="#000000"
     borderopacity="0.25"
     inkscape:pageshadow="2"
     inkscape:pageopacity="0.0"
     inkscape:pagecheckerboard="0"
     inkscape:document-units="mm"
     showgrid="false"
     units="px"
     width="300px"
     inkscape:zoom="0.46929648"
     inkscape:cx="68.187172"
     inkscape:cy="254.63647"
     inkscape:window-width="1488"
     inkscape:window-height="970"
     inkscape:window-x="26"
     inkscape:window-y="23"
     inkscape:window-maximized="0"
     inkscape:current-layer="layer1" />
  <defs
     id="defs2" />
  <g
     inkscape:label="Layer 1"
     inkscape:groupmode="layer"
     id="layer1">
    <rect
       style="fill:#8a87bd;stroke:#924848;stroke-width:0.597001;-inkscape-stroke:none;stop-color:#000000;fill-opacity:1;stroke-opacity:1"
       id="rect1024"
       width="132.42368"
       height="131.92612"
       x="0.057618521"
       y="0.39242876"
       ry="0.13213767" />
    <g
       id="SVGRepo_bgCarrier"
       stroke-width="0"
       transform="matrix(0.1233123,0,0,0.1233123,-1.9293776,-8.8725303)" />
    <g
       id="SVGRepo_tracerCarrier"
       stroke-linecap="round"
       stroke-linejoin="round"
       transform="matrix(0.1233123,0,0,0.1233123,-1.9293776,-8.8725303)" />
    <g
       id="SVGRepo_iconCarrier"
       transform="matrix(0.13816653,0,0,0.13816653,-4.5960025,-9.5242022)">
      <path
         d="m 133.65972,592.87738 c 8.1882,28.81075 33.33422,47.78156 100.53783,72.96284 l 83.99356,272.80759 c 0,0 5.5999,5.59625 16.79239,6.99622 30.79456,-2.80967 369.58702,0 369.58702,0 0,0 20.99961,4.18655 29.40797,-19.58747 8.38281,-23.79469 79.80459,-279.80746 79.80459,-279.80746 0,0 100.78595,-1.40362 110.57726,-88.15457 1.39997,-64.34649 -807.71924,-25.09857 -790.70062,34.78285 z"
         fill="#77261c"
         id="path1019" />
      <path
         d="m 697.01237,967.48776 a 27.841357,27.841357 0 0 1 -4.5636,-0.35881 c -15.92394,-0.13136 -348.83676,-2.80481 -379.26399,-0.0219 l -0.70668,0.0645 -0.70424,-0.0888 c -13.36604,-1.67364 -20.35496,-8.3147 -21.10786,-9.06638 l -1.15185,-1.15185 -29.72907,-96.56535 a 6.5562358,6.5562358 0 0 1 12.53165,-3.85936 l 28.67088,93.12928 c 1.74541,1.24672 5.65342,3.52973 11.76903,4.41399 35.91401,-2.76954 366.21905,-0.0766 380.3684,0.0377 l 1.22482,0.12771 c 1.60553,0.28948 16.33506,2.38154 22.81313,-15.92029 8.45093,-24.00268 81.28606,-284.99746 82.02071,-287.63199 l 1.31848,-4.71564 4.90052,-0.0766 c 3.89219,-0.0596 92.97967,-2.37667 106.45396,-78.28055 -186.57601,-15.6819 -735.35725,8.84744 -786.94465,19.94385 3.0724,32.08749 32.0498,58.62253 86.22185,78.92155 l 3.01645,1.13238 25.20805,81.87111 a 6.557132,6.557132 0 0 1 -4.33615,8.19428 6.560781,6.560781 0 0 1 -8.19551,-4.33614 l -23.31668,-75.7336 c -60.13319,-23.17559 -91.07006,-54.83252 -91.96405,-94.11084 -0.0474,-2.02395 0.76993,-3.92747 2.30248,-5.35177 2.61263,-2.43384 6.55834,-6.1071 108.59953,-12.65937 63.30169,-4.06369 145.48174,-7.91332 231.39951,-10.84098 211.75243,-7.20907 385.98897,-7.01689 466.10129,0.53032 l 6.64957,0.62275 -0.75046,6.63741 c -9.29262,82.3187 -93.76176,94.51222 -115.29047,96.27952 -10.05645,36.0174 -72.95068,261.02397 -81.02941,283.96846 -7.01812,19.82952 -22.25119,24.89545 -32.51564,24.89545 z"
         fill="#040000"
         id="path1021" />
      <path
         d="m 256.49374,833.89182 a 6.555916,6.555916 0 0 1 -6.26278,-4.62685 l -13.05345,-42.39451 a 6.555916,6.555916 0 1 1 12.53043,-3.85814 l 13.05345,42.39451 a 6.5547,6.5547 0 0 1 -6.26765,8.48499 z"
         fill="#040000"
         id="path1023" />
      <path
         d="m 361.08067,890.33351 c -12.06824,3.68786 -24.98059,-3.53703 -28.83873,-16.13315 L 279.49662,701.25311 c -3.83017,-12.59125 2.83035,-25.787 14.90345,-29.43715 12.07189,-3.69516 24.96235,3.5346 28.784,16.12585 l 52.79641,172.95576 c 3.83503,12.58517 -2.82549,25.7785 -14.89981,29.43594 z m 109.88031,4.07099 c -12.52922,1.58364 -24.02944,-7.70776 -25.67875,-20.77702 L 422.4764,694.26054 c -1.65419,-13.04737 7.13852,-24.91613 19.66531,-26.52166 12.50733,-1.58363 23.99903,7.70776 25.65321,20.77703 l 22.83016,179.36207 c 1.65297,13.04858 -7.13974,24.92708 -19.6641,26.52652 z M 620.59642,694.26054 597.7918,873.62748 c -1.6554,13.06926 -13.12034,22.36066 -25.65564,20.77702 -12.52314,-1.59945 -21.34018,-13.47794 -19.66775,-26.52652 l 22.80461,-179.36207 c 1.68216,-13.06927 13.15319,-22.36066 25.68119,-20.77703 12.50611,1.60553 21.3195,13.47551 19.64221,26.52166 z m 143.00654,6.99257 -52.77087,172.94725 c -3.85449,12.59125 -16.74495,19.82101 -28.81805,16.13315 -12.07432,-3.65745 -18.72754,-16.85077 -14.89981,-29.4408 l 52.77086,-172.9509 c 3.85449,-12.58274 16.74374,-19.81736 28.81806,-16.12585 12.06945,3.64893 18.72875,16.8459 14.89981,29.43715 z"
         fill="#f1dd81"
         id="path1025" />
      <path
         d="m 912.359,538.27961 c -9.14787,30.54157 -58.06303,80.93576 -123.74018,19.86844 -9.1722,-6.12047 -16.81671,-9.16855 -35.16476,9.14666 -18.32737,18.33954 -27.44727,77.31602 -109.94721,74.25213 -45.84276,-3.03469 -84.07628,-42.17315 -102.42068,-66.61248 -10.68772,-15.27565 -32.08141,-18.31886 -45.83059,1.52769 -13.7431,19.84168 -64.16892,68.69845 -131.37618,7.63964 -12.21906,-16.80698 -33.63708,-22.91043 -55.02469,0 -21.38883,22.90314 -93.2059,54.95658 -161.94815,-19.84168 -27.50322,-30.55129 1.52282,-103.84619 64.17013,-117.58807 l 6.10345,-9.16369 c 0,0 12.59977,-279.40243 307.27906,-294.67564 212.39586,11.65591 300.80586,160.33289 314.56112,316.0742 55.0186,13.73823 82.51939,48.858 73.33868,79.3728 z"
         fill="#f7e0a5"
         id="path1027" />
      <path
         d="m 542.61386,254.28926 c 0,-15.17835 -12.30907,-27.4862 -27.49836,-27.4862 -15.18564,0 -27.49471,12.30785 -27.49471,27.4862 0,15.1674 12.31394,27.47768 27.49471,27.47768 15.18929,0 27.49836,-12.30055 27.49836,-27.47768 z"
         fill="#2eb3e9"
         id="path1029" />
      <path
         d="m 719.72697,300.80099 c 0,-15.17835 -12.31393,-27.48255 -27.4947,-27.48255 -15.1893,0 -27.49836,12.3042 -27.49836,27.48255 0,15.17469 12.30907,27.48011 27.49836,27.48011 15.18077,0 27.4947,-12.30542 27.4947,-27.48011 z"
         fill="#75291c"
         id="path1031" />
      <path
         d="m 708.37758,443.22978 c -15.19416,0 -27.50323,12.29569 -27.50323,27.50079 0,15.17591 12.30907,27.47768 27.50323,27.47768 15.18564,0 27.4947,-12.30298 27.4947,-27.47768 -0.004,-15.20024 -12.30906,-27.50079 -27.4947,-27.50079 z"
         fill="#6ab82e"
         id="path1033" />
      <path
         d="m 525.32157,415.74723 c -15.18808,0 -27.50323,12.30056 -27.50323,27.4862 0,15.16618 12.31515,27.49714 27.50323,27.49714 15.1832,0 27.49349,-12.32609 27.49349,-27.49714 0.004,-15.18564 -12.31029,-27.48619 -27.49349,-27.4862 z"
         fill="#eed922"
         id="path1035" />
      <path
         d="m 359.61137,309.34192 c -15.18565,0 -27.49471,12.30907 -27.49471,27.48012 0,15.17834 12.30906,27.48254 27.49471,27.48254 15.18807,0 27.49835,-12.3042 27.49835,-27.48254 0,-15.17105 -12.3115,-27.48012 -27.49835,-27.48012 z"
         fill="#e94b49"
         id="path1037" />
      <path
         d="m 310.29117,443.22978 c -15.21361,0 -27.52754,12.29569 -27.52754,27.50079 0,15.17591 12.31393,27.47768 27.52754,27.47768 15.18321,0 27.50079,-12.30298 27.50079,-27.47768 -0.006,-15.20024 -12.31758,-27.50079 -27.50079,-27.50079 z"
         fill="#75291c"
         id="path1039" />
      <path
         d="M 834.64889,458.43488 C 820.89242,302.696 732.48364,154.0178 520.08656,142.36068 c -104.35096,5.40772 -173.30119,43.95261 -218.8715,91.46536 44.95486,-37.76402 108.15315,-66.42882 197.05818,-71.03863 212.39708,11.6559 300.80707,160.33532 314.56233,316.0742 55.01983,13.73823 82.5194,48.85799 73.33869,79.37523 -1.79284,5.99277 -5.13892,12.736 -9.8205,19.26637 16.58197,-10.06376 27.73433,-26.66762 31.63503,-39.69309 9.1795,-30.51846 -18.31885,-65.637 -73.3399,-79.37524 z"
         fill="#d7c293"
         id="path1041" />
      <path
         d="m 289.50929,225.24132 a 6.5547,6.5547 0 0 1 -4.49184,-11.33115 c 17.70584,-16.64643 37.56698,-31.1181 59.03244,-43.02092 a 6.560781,6.560781 0 0 1 8.91434,2.55425 6.560781,6.560781 0 0 1 -2.55669,8.91435 c -20.5143,11.3725 -39.49483,25.20318 -56.40885,41.10401 a 6.540104,6.540104 0 0 1 -4.4894,1.77946 z"
         fill="#040000"
         id="path1043" />
      <path
         d="m 635.6361,656.63031 c -2.13827,0 -4.31912,-0.0426 -6.55591,-0.12527 -56.02328,-3.69516 -99.21935,-55.63771 -111.1319,-71.47287 -4.53927,-6.46226 -11.17425,-10.21336 -17.87977,-10.21336 h -0.045 c -7.03636,0.017 -13.765,4.13546 -18.94648,11.59631 -4.21209,6.06452 -27.15657,36.54284 -65.28062,40.90089 -26.79047,3.04321 -53.92515,-7.67006 -80.64993,-31.88681 l -0.89642,-0.99373 c -5.65098,-7.76006 -12.95615,-12.2896 -20.56539,-12.75302 -8.60661,-0.50355 -17.69124,4.09654 -26.36597,13.36726 -13.93527,14.88278 -42.76184,29.83732 -75.85645,29.83732 h -0.44395 c -25.05114,-0.0973 -62.93314,-8.92407 -101.1326,-50.38446 -12.914793,-14.31111 -16.007872,-37.12789 -8.31835,-61.08313 11.09275,-34.55418 40.6041,-62.04767 75.62656,-70.71146 l 3.89463,-5.82977 c 1.00102,-15.12848 9.98956,-112.92961 78.1723,-195.4855 a 6.555916,6.555916 0 0 1 10.11119,8.34755 c -69.66177,84.34629 -75.24464,188.55373 -75.29086,189.59489 l -0.0851,1.82204 -8.80731,13.18481 -2.57979,0.56558 c -38.49381,8.42539 -60.98948,38.94385 -68.55615,62.51595 -6.24454,19.45854 -4.18046,37.49035 5.52327,48.24254 28.05178,30.44791 58.84998,45.97655 91.49699,46.10792 h 0.41597 c 33.30381,0 57.30284,-16.12099 66.25976,-25.68484 14.44369,-15.43742 27.98609,-18.05492 36.73988,-17.49542 11.38224,0.69573 21.99334,6.92203 29.94436,17.55015 23.64266,21.27206 47.17827,30.7228 69.87585,28.14422 25.21291,-2.88022 45.92668,-20.84514 56.00139,-35.35208 7.6956,-11.08302 18.23736,-17.19985 29.68285,-17.23026 h 0.0754 c 10.97721,0 21.61871,5.83465 28.48722,15.6223 10.93463,14.52762 50.93545,62.76651 101.20071,66.08217 61.57088,2.31343 81.00023,-30.80672 95.14958,-54.96387 4.68644,-7.99846 8.73189,-14.91319 13.7212,-19.88912 20.14941,-20.06913 31.64354,-18.9635 44.70429,-10.27296 l 0.82831,0.65194 c 25.04506,23.23154 50.23607,32.25535 72.8181,26.11785 25.19831,-6.85513 40.51775,-29.91152 44.67024,-43.73489 3.02496,-10.03457 1.5143,-20.805 -4.36291,-31.14973 -10.93464,-19.23352 -35.33505,-34.78041 -66.93967,-42.65237 l -4.53319,-1.12874 -0.41477,-4.65482 c -8.10914,-91.587 -55.46377,-306.11383 -319.45433,-320.74727 -44.96823,2.35843 -86.12211,10.95896 -122.32196,25.56685 -3.34728,1.35984 -7.1738,-0.26758 -8.5312,-3.62582 a 6.558348,6.558348 0 0 1 3.62704,-8.53485 c 37.64239,-15.18808 80.33612,-24.11093 126.8965,-26.51801 l 0.3503,-0.017 0.34786,0.0195 c 104.0627,5.69598 186.41546,42.62318 244.7692,109.75625 48.41769,55.70217 78.43502,131.12196 86.9492,218.34727 32.90364,9.10165 58.50334,26.338 70.64942,47.71101 7.70046,13.53876 9.60764,27.85717 5.52327,41.40931 -5.97939,19.91101 -25.36495,44.87092 -53.78649,52.60423 -18.87471,5.14378 -48.89935,4.29722 -84.78538,-28.79252 -6.80405,-4.51616 -11.60118,-7.14461 -27.7477,8.92894 -3.78516,3.78151 -7.43531,10.01267 -11.66564,17.23391 -14.44613,24.67044 -36.05146,61.5502 -100.58162,61.55506 z"
         fill="#040000"
         id="path1045" />
    </g>
    <text
       xml:space="preserve"
       style="font-size:5.67009px;line-height:1.25;font-family:Sarai;-inkscape-font-specification:Sarai;text-decoration-color:#000000;fill:#cca998;fill-opacity:1;stroke:none;stroke-width:3.38331;stop-color:#000000"
       x="15.441346"
       y="129.42186"
       id="text3815"><tspan
         sodipodi:role="line"
         id="tspan3813"
         style="fill:#d98b8b;fill-opacity:1;stroke:none;stroke-width:3.38331"
         x="15.441346"
         y="129.42186">Image from: https://www.svgrepo.com/svg/501890/cake</tspan></text>
  </g>
</svg>
